{"accessors":[{"bufferView":2,"componentType":5126,"count":54,"max":[0.6000000238418579,0.46175000071525574,0.13089999556541443],"min":[-0.625,-0.46893998980522156,-0.07548999786376953],"type":"VEC3"},{"bufferView":2,"byteOffset":648,"componentType":5126,"count":54,"max":[0.6953127980232239,0.9997039437294006,1],"min":[-1,-1,-1],"type":"VEC3"},{"bufferView":1,"componentType":5126,"count":54,"max":[0.985729992389679,0.9866300225257874],"min":[0.0002500000118743628,0.026599999517202377],"type":"VEC2"},{"bufferView":0,"componentType":5125,"count":72,"type":"SCALAR"},{"bufferView":2,"byteOffset":1296,"componentType":5126,"count":195,"max":[0.6000000238418579,0.30000001192092896,0.06499999761581421],"min":[-0.6000000238418579,-0.30000001192092896,-0.02500000037252903],"type":"VEC3"},{"bufferView":2,"byteOffset":3636,"componentType":5126,"count":195,"max":[1,1,1],"min":[-1,-1,-1],"type":"VEC3"},{"bufferView":1,"byteOffset":432,"componentType":5126,"count":195,"max":[0.6679400205612183,0.4921000003814697],"min":[0.0002500000118743628,0.0002500000118743628],"type":"VEC2"},{"bufferView":0,"byteOffset":288,"componentType":5125,"count":327,"type":"SCALAR"}],"asset":{"extras":{"author":"thegummifanj (https://sketchfab.com/thegummifanj)","license":"CC-BY-4.0 (http://creativecommons.org/licenses/by/4.0/)","source":"https://sketchfab.com/3d-models/dairy-milk-cadbury-milk-chocolate-bar-9102ac11b3884e179d2722cba6b84652","title":"Dairy Milk Cadbury Milk Chocolate Bar"},"generator":"Sketchfab-11.32.0","version":"2.0"},"bufferViews":[{"buffer":0,"byteLength":1596,"name":"floatBufferViews","target":34963},{"buffer":0,"byteLength":1992,"byteOffset":1596,"byteStride":8,"name":"floatBufferViews","target":34962},{"buffer":0,"byteLength":5976,"byteOffset":3588,"byteStride":12,"name":"floatBufferViews","target":34962}],"buffers":[{"byteLength":9564,"uri":"data:application/octet-stream;base64,"}],"images":[{"uri":"data:application/octet-stream;base64,"}],"materials":[{"doubleSided":true,"name":"material","pbrMetallicRoughness":{"baseColorTexture":{"index":0},"metallicFactor":0,"roughnessFactor":0.6}},{"doubleSided":true,"name":"Milk_Chocolate","pbrMetallicRoughness":{"baseColorTexture":{"index":0},"metallicFactor":0,"roughnessFactor":0.6}}],"meshes":[{"name":"Cube_0","primitives":[{"attributes":{"NORMAL":1,"POSITION":0,"TEXCOORD_0":2},"indices":3,"material":0,"mode":4}]},{"name":"Cube_1","primitives":[{"attributes":{"NORMAL":5,"POSITION":4,"TEXCOORD_0":6},"indices":7,"material":1,"mode":4}]}],"nodes":[{"children":[1],"matrix":[1,0,0,0,0,2.220446049250313e-16,-1,0,0,1,2.220446049250313e-16,0,0,0,0,1],"name":"Sketchfab_model"},{"children":[2],"name":"Root"},{"children":[3,4],"name":"Cube"},{"mesh":0,"name":"Cube_0"},{"mesh":1,"name":"Cube_1"}],"samplers":[{"magFilter":9729,"minFilter":9987,"wrapS":10497,"wrapT":10497}],"scene":0,"scenes":[{"name":"Sketchfab_Scene","nodes":[0]}],"textures":[{"sampler":0,"source":0}]}